
<svg xmlns="http://www.w3.org/2000/svg"  id="fb" viewBox="0 0 33 33">
  <style>
    
    #fb{  
      fill:#78c2ff;
    }

    .fb:hover  #fb{
     fill:#cdd645;
    }
   
   </style>
	<path class="p_fb" d="M14.37,25h3.32a.52.52,0,0,0,.52-.52V17h1.72a.52.52,0,0,0,.51-.46l.29-2.82a.52.52,0,0,0-.51-.57h-2V12c0-.24.07-.25.19-.25h1.78a.52.52,0,0,0,.52-.52V8.52A.52.52,0,0,0,20.18,8H17.71a3.63,3.63,0,0,0-3.11,1.4,4.24,4.24,0,0,0-.75,2.47v1.31H12.79a.52.52,0,0,0-.52.52v2.82a.52.52,0,0,0,.52.52h1.06v7.47a.52.52,0,0,0,.52.52ZM13.3,16V14.2h1.06a.52.52,0,0,0,.52-.52V11.86A3.27,3.27,0,0,1,15.43,10a2.65,2.65,0,0,1,2.28-1h1.94v1.71H18.39A1.19,1.19,0,0,0,17.17,12v1.66a.52.52,0,0,0,.52.52h2L19.46,16H17.68a.52.52,0,0,0-.52.52V24H14.88V16.51a.52.52,0,0,0-.52-.52Zm0,0"/>
	<path class="socials" d="M28.17,4.83A16.5,16.5,0,1,0,4.83,28.17,16.5,16.5,0,0,0,28.17,4.83Zm-.73,22.61A15.47,15.47,0,1,1,5.56,5.56,15.47,15.47,0,0,1,27.44,27.44Zm0,0"/>
	<path class="socials" d="M27.72,7.41a.52.52,0,1,0-.8.65A13.41,13.41,0,0,1,7.56,26.49a.52.52,0,1,0-.69.77A14.44,14.44,0,0,0,27.72,7.41Zm0,0"/>
	<path class="socials" d="M3.09,16.5a13.41,13.41,0,0,1,22.34-10,.52.52,0,1,0,.69-.77A14.44,14.44,0,0,0,5.28,25.59a.52.52,0,0,0,.8-.65,13.43,13.43,0,0,1-3-8.44Zm0,0"/>

</svg>