
<svg xmlns="http://www.w3.org/2000/svg" id="in" viewBox="0 0 33 33">
  <style>
    #in{  
    fill:#78c2ff;
    }
    .in:hover  #in{
     fill:#cdd645;
    }
   </style>
	<path class="p_in" d="M28.17,4.83A16.5,16.5,0,1,0,4.83,28.17,16.5,16.5,0,0,0,28.17,4.83Zm-.73,22.61A15.47,15.47,0,0,1,5.56,5.56,15.47,15.47,0,0,1,27.44,27.44Zm0,0"/>
	<path class="socials" d="M27.72,7.41a.52.52,0,0,0-.8.65A13.41,13.41,0,0,1,7.56,26.49a.52.52,0,1,0-.69.77A14.44,14.44,0,0,0,27.72,7.41Zm0,0"/>
	<path class="socials" d="M3.09,16.5a13.41,13.41,0,0,1,22.34-10,.52.52,0,0,0,.69-.77A14.44,14.44,0,0,0,5.28,25.59a.52.52,0,0,0,.8-.65,13.43,13.43,0,0,1-3-8.44Zm0,0"/>
	<path class="socials" d="M20.83,8.23H12.2a4,4,0,0,0-4,4v8.64a4,4,0,0,0,4,4h8.63a4,4,0,0,0,4-4V12.2a4,4,0,0,0-4-4Zm2.93,12.61a2.93,2.93,0,0,1-2.93,2.93H12.2a2.93,2.93,0,0,1-2.92-2.93V12.2A2.93,2.93,0,0,1,12.2,9.27h8.63a2.93,2.93,0,0,1,2.93,2.92Zm0,0"/>
	<path class="socials" d="M21.15,11.26a.64.64,0,1,0,.64.64.64.64,0,0,0-.64-.64Zm0,0"/>
	<path class="socials" d="M16.52,12.45a4.06,4.06,0,1,0,4.06,4.06,4.07,4.07,0,0,0-4.06-4.06Zm0,7.08a3,3,0,1,1,3-3,3,3,0,0,1-3,3Zm0,0"/>

</svg>