<svg xmlns="http://www.w3.org/2000/svg" viewBox="0 0 168.11 25.96"><defs><style>.cls-1{fill:#fff;}</style></defs><title>logo</title><g id="Слой_2" data-name="Слой 2"><g id="Слой_1-2" data-name="Слой 1"><path class="cls-1" d="M0,1.05H7.18L13,10.54l5.85-9.49h7.21v24.5h-6.8V11.48L13,21.07h-.14L6.65,11.55v14H0ZM30,0h6.93V4.9H30Zm.1,6.62h6.65V25.55H30.09ZM40.63,0h6.65V25.55H40.63ZM51.09,0h6.65V25.55H51.09Zm9.63,16.1c0-5.53,4-9.91,9.56-9.91,6.55,0,9.56,4.8,9.56,10.36v1.36H67.09A3.91,3.91,0,0,0,71.19,21a5.71,5.71,0,0,0,4.2-1.93l3.68,3a9.92,9.92,0,0,1-8.23,3.85C64.92,26,60.72,22,60.72,16.1ZM73.6,14.52c-.25-2.1-1.47-3.43-3.29-3.43S67.37,12.46,67,14.52Zm9.07-7.9h6.65V9.28A7,7,0,0,1,95,6.2c4,0,6.44,2.66,6.44,7V25.55H94.78V15.3c0-2.07-1.08-3.19-2.66-3.19s-2.8,1.12-2.8,3.19V25.55H82.67ZM104.86,0h6.93V4.9h-6.93ZM105,6.62h6.65V25.55H105ZM115.22,19V6.62h6.65V16.87c0,2.07,1.08,3.19,2.7,3.19s2.76-1.12,2.76-3.19V6.62H134V25.55h-6.65V23a7,7,0,0,1-5.67,3c-4,0-6.44-2.61-6.44-7ZM137.55,6.62h6.65V9.21a7,7,0,0,1,5.64-3,5.81,5.81,0,0,1,5.46,3.08,8,8,0,0,1,6.33-3.08c4,0,6.48,2.52,6.48,6.93V25.55h-6.65V15.26c0-2.07-1-3.15-2.59-3.15s-2.78,1.09-2.78,3.15V25.55h-6.65V15.26c0-2.07-1-3.15-2.59-3.15s-2.7,1.09-2.7,3.15V25.55H137.5Z"/></g></g></svg>