<svg xmlns="http://www.w3.org/2000/svg" viewBox="0 0 52.29 60"><defs><style>.cls-1{fill:#2f73ee;}</style></defs><title>profit3</title><g id="Слой_2" data-name="Слой 2"><g id="Слой_1-2" data-name="Слой 1"><path class="cls-1" d="M45.34,17.31l3.1-3.1a.93.93,0,0,0,0-1.32L43.88,8.32a.93.93,0,0,0-1.32,0l-3.94,3.94a25.28,25.28,0,0,0-8.69-2.65V5.84h2a.93.93,0,0,0,.93-.93v-4A.93.93,0,0,0,32,0H22a.93.93,0,0,0-.93.93v4a.93.93,0,0,0,.93.93h2V9.61a25.29,25.29,0,1,0,21.24,7.7Zm-2.12-7,3.25,3.25L44,16a25.37,25.37,0,0,0-3.71-2.79ZM26,5.84h2.11V8.94H26Zm-3-4h8.07V4H23Zm4,56.27A23.42,23.42,0,1,1,43.38,18h0A23.41,23.41,0,0,1,27,58.14Z"/><path class="cls-1" d="M27,28.32a6.35,6.35,0,0,0-3.82,1.26L19.58,26A11.4,11.4,0,0,1,27,23.23a.93.93,0,0,0,.93-.93V16.83A.93.93,0,0,0,27,15.9a19,19,0,0,0-3.33.29h0l-.92.19h0a18.72,18.72,0,0,0-3.08,1h0l-.83.38h0l-.81.41h0l-.79.45h0l-.38.24h0c-.5.32-1,.68-1.47,1h0c-.35.28-.7.57-1,.87s-.66.62-1,.94h0c-.21.22-.41.44-.61.67s-.39.46-.57.7h0c-.19.24-.37.48-.54.72h0c-.35.49-.68,1-1,1.53h0c-.3.53-.58,1.07-.83,1.62h0c-.19.42-.36.84-.52,1.27h0l-.15.43h0c-.15.44-.28.89-.4,1.33h0l-.11.45c-.14.61-.25,1.23-.33,1.85h0c-.06.47-.1,1-.13,1.43,0,.32,0,.65,0,1a.93.93,0,0,0,.93.93h5.47a.93.93,0,0,0,.93-.93,11.4,11.4,0,0,1,2.74-7.44l3.62,3.62A6.4,6.4,0,1,0,27,28.32ZM13.69,33.79H10.08c0-.41.06-.82.11-1.23h0c.07-.56.17-1.12.3-1.67l.1-.41h0c.1-.4.22-.81.36-1.2h0l.14-.39h0c.14-.39.3-.77.47-1.15h0c.22-.5.48-1,.75-1.46h0c.27-.47.57-.93.88-1.38h0c.16-.22.32-.44.49-.65h0c.17-.21.34-.42.52-.63l.21-.24.06-.06.28-.3h0c.28-.29.57-.58.87-.85s.61-.54.93-.79h0c.43-.34.87-.65,1.33-.94h0l.35-.22h0l.71-.41h0l.73-.37h0l.75-.34h0a16.87,16.87,0,0,1,2.77-.9h0L24,18h0a17.07,17.07,0,0,1,2.07-.24V21.4a13.24,13.24,0,0,0-7.83,3.24l-1.51-1.51a.93.93,0,1,0-1.32,1.32L16.94,26A13.24,13.24,0,0,0,13.69,33.79ZM27,39.25a4.53,4.53,0,0,1-3.21-7.74h0A4.53,4.53,0,1,1,27,39.25Z"/><path class="cls-1" d="M6.94,14.65A28.14,28.14,0,0,1,17.39,8a.93.93,0,1,0-.63-1.75A30,30,0,0,0,5.63,13.33,30.32,30.32,0,0,0,.1,20.88a.93.93,0,1,0,1.66.85A28.46,28.46,0,0,1,6.94,14.65Z"/><path class="cls-1" d="M.51,14.07a.93.93,0,0,0,1.31-.12,33.34,33.34,0,0,1,9.74-8,.93.93,0,0,0-.89-1.64A35.2,35.2,0,0,0,.38,12.76.93.93,0,0,0,.51,14.07Z"/></g></g></svg>