<svg xmlns="http://www.w3.org/2000/svg" viewBox="0 0 58.99 60"><defs><style>.cls-1{fill:#2f73ee;}</style></defs><title>profit4</title><g id="Слой_2" data-name="Слой 2"><g id="Слой_1-2" data-name="Слой 1"><path class="cls-1" d="M50.4,36.6A20,20,0,0,0,59,20.4C59,9.15,49.16,0,37.07,0A22.44,22.44,0,0,0,19.2,8.59H.95A1,1,0,0,0,0,9.54V49.45a1,1,0,0,0,.95.95H8.08v8.65a.95.95,0,0,0,1.61.68l9.58-9.33h17a1,1,0,0,0,.95-.95V40.8a23.52,23.52,0,0,0,5.26-.64l9.62,3.61a.95.95,0,0,0,1.18-1.31ZM18.88,48.51a1,1,0,0,0-.66.27l-8.24,8V49.45A1,1,0,0,0,9,48.51H1.89v-38h16a19.58,19.58,0,0,0-2.39,6.19H8a1,1,0,0,0-.95.95v3A1,1,0,0,0,8,21.6H15.2a19,19,0,0,0,1.05,5.18H8a1,1,0,0,0-.95.95v3a1,1,0,0,0,.95.95H18.83a21.19,21.19,0,0,0,5.33,5.18H8a1,1,0,0,0-.95.95v3a1,1,0,0,0,.95.95H29.24a1,1,0,0,0,.95-.95V39.77a23.21,23.21,0,0,0,5.18,1v7.77ZM17,28.67q.27.58.59,1.14H9V28.67Zm-1.87-9H9V18.57h6.28C15.21,18.95,15.19,19.33,15.17,19.71ZM27.56,38.78l.74.32v.82H9V38.78Zm15.36-.49a1,1,0,0,0-.56,0,21.61,21.61,0,0,1-5.28.65h-.73a21.31,21.31,0,0,1-6.77-1.33c-.48-.18-1-.38-1.42-.59a19.62,19.62,0,0,1-8-6.74h0a18,18,0,0,1-1.59-2.87h0a17.2,17.2,0,0,1-1.46-6.71h0v-.09c0-.05,0-.1,0-.15a17.34,17.34,0,0,1,.2-2.63h0a17.47,17.47,0,0,1,3.19-7.67,20.5,20.5,0,0,1,16.63-8.2c11,0,20,8.3,20,18.51a18.17,18.17,0,0,1-8.43,15.09,1,1,0,0,0-.33,1.22l2.22,4.44Z"/><path class="cls-1" d="M53.31,20.4a.95.95,0,0,0,1.89,0,15.3,15.3,0,0,0-1.83-7.27A.95.95,0,1,0,51.7,14,13.43,13.43,0,0,1,53.31,20.4Z"/><path class="cls-1" d="M49.45,10.5a.95.95,0,0,0,.65-1.63,18.81,18.81,0,0,0-13-5.07.95.95,0,0,0,0,1.89A16.92,16.92,0,0,1,48.8,10.24.94.94,0,0,0,49.45,10.5Z"/><path class="cls-1" d="M36.06,18.19a3.73,3.73,0,1,0,3.73,3.73A3.73,3.73,0,0,0,36.06,18.19Zm0,5.56a1.83,1.83,0,1,1,1.83-1.83A1.83,1.83,0,0,1,36.06,23.75Z"/><path class="cls-1" d="M49.89,21.92a3.73,3.73,0,1,0-3.73,3.73A3.73,3.73,0,0,0,49.89,21.92Zm-3.73,1.83A1.83,1.83,0,1,1,48,21.92,1.83,1.83,0,0,1,46.17,23.75Z"/><path class="cls-1" d="M26,18.19a3.73,3.73,0,1,0,3.73,3.73A3.73,3.73,0,0,0,26,18.19Zm0,5.56a1.83,1.83,0,1,1,1.83-1.83A1.83,1.83,0,0,1,26,23.75Z"/></g></g></svg>