
<svg xmlns="http://www.w3.org/2000/svg" id="tw" viewBox="0 0 33 33">
  <style>
    #tw{  
    fill:#78c2ff;
    }
    .tw:hover  #tw{
     fill:#cdd645;
    }
   </style>
	<path class="f_tw" d="M28.17,4.83A16.5,16.5,0,1,0,4.83,28.17,16.5,16.5,0,0,0,28.17,4.83Zm-.73,22.61A15.47,15.47,0,1,1,5.56,5.56,15.47,15.47,0,0,1,27.44,27.44Zm0,0"/>
	<path class="socials" d="M27.72,7.41a.52.52,0,1,0-.8.65A13.41,13.41,0,0,1,7.56,26.49a.52.52,0,1,0-.69.77A14.44,14.44,0,0,0,27.72,7.41Zm0,0"/>
	<path class="socials" d="M3.09,16.5a13.41,13.41,0,0,1,22.34-10,.52.52,0,1,0,.69-.77A14.44,14.44,0,0,0,5.28,25.59a.52.52,0,0,0,.8-.65,13.43,13.43,0,0,1-3-8.44Zm0,0"/>
	<path class="socials" d="M25.69,12.55a.52.52,0,0,0-.64-.76l0,0a3.78,3.78,0,0,0,.3-.69.52.52,0,0,0-.75-.6,6,6,0,0,1-1.66.68A3.8,3.8,0,0,0,16.55,14q0,.09,0,.18A8.82,8.82,0,0,1,10.79,11a.52.52,0,0,0-.85.07,3.8,3.8,0,0,0-.06,3.71.52.52,0,0,0-.48.51v0a3.8,3.8,0,0,0,1.33,2.88l-.05,0a.52.52,0,0,0-.1.5,3.79,3.79,0,0,0,2.21,2.37,6,6,0,0,1-2.73.64,6.3,6.3,0,0,1-.72,0,.52.52,0,0,0-.34.95,9.81,9.81,0,0,0,5.31,1.56A9.44,9.44,0,0,0,21.62,21a10.18,10.18,0,0,0,2.53-6.63c0-.06,0-.12,0-.17a7.12,7.12,0,0,0,1.54-1.66Zm-2.37,1a.52.52,0,0,0-.21.44c0,.13,0,.26,0,.4a9.13,9.13,0,0,1-2.27,5.95,8.44,8.44,0,0,1-6.54,2.87,8.78,8.78,0,0,1-3-.51,7,7,0,0,0,3.1-1.4.52.52,0,0,0-.31-.92,2.76,2.76,0,0,1-2.23-1.19,3.83,3.83,0,0,0,.77-.13.52.52,0,0,0,0-1,2.77,2.77,0,0,1-2.11-2,3.81,3.81,0,0,0,.85.12.52.52,0,0,0,.3-.94,2.77,2.77,0,0,1-1.14-3,9.85,9.85,0,0,0,6.57,3,.52.52,0,0,0,.53-.63,2.77,2.77,0,0,1,4.71-2.52.52.52,0,0,0,.47.15l.58-.14a2.77,2.77,0,0,1-.3.21.52.52,0,0,0,.33,1l.25,0-.37.29Zm0,0"/>

</svg>